<svg xmlns="http://www.w3.org/2000/svg" viewBox="0 0 73.01953 73.12181"><defs><style>.cls-1{fill:#39b54a;}</style></defs><g id="Слой_2" data-name="Слой 2"><g id="Слой_1-2" data-name="Слой 1"><path class="cls-1" d="M36.40735,17.02311A19.81507,19.81507,0,1,0,56.22242,36.83818,19.83758,19.83758,0,0,0,36.40735,17.02311Zm0,37.46055a17.64549,17.64549,0,1,1,17.6455-17.64549A17.66553,17.66553,0,0,1,36.40735,54.48366Z"/><path class="cls-1" d="M36.40735,11.71776A25.12049,25.12049,0,1,0,61.52791,36.83818,25.14886,25.14886,0,0,0,36.40735,11.71776Zm0,48.07139a22.95091,22.95091,0,1,1,22.951-22.95083A22.97691,22.97691,0,0,1,36.40735,59.78915Z"/><path class="cls-1" d="M36.40735,7.09048a29.74763,29.74763,0,1,0,29.74756,29.7477A29.78132,29.78132,0,0,0,36.40735,7.09048Zm0,57.32567a27.578,27.578,0,1,1,27.578-27.578A27.60915,27.60915,0,0,1,36.40735,64.41615Z"/><path class="cls-1" d="M72.2267,38.39261a5.49758,5.49758,0,0,1-.57769-1.55429,35.57707,35.57707,0,0,0-.53863-6.171,3.535,3.535,0,0,1,.128-1.47416,4.63772,4.63772,0,0,0,.01273-2.66034c-.159-.48845-.31864-1.01016-.48773-1.56268a30.14319,30.14319,0,0,0-2.27314-5.93583,7.14236,7.14236,0,0,0-2.324-2.0744,7.00871,7.00871,0,0,1-1.49427-1.17476,10.04578,10.04578,0,0,1-.85568-2.07557,9.054,9.054,0,0,0-1.50149-3.15818,35.61024,35.61024,0,0,0-3.49245-3.22111,5.44224,5.44224,0,0,0-3.41882-1.0116,4.70472,4.70472,0,0,1-2.08135-.40484,35.16926,35.16926,0,0,0-5.43871-2.40636,9.44747,9.44747,0,0,1-1.93324-1.176A8.978,8.978,0,0,0,42.72851.62512,35.53166,35.53166,0,0,0,36.0864,0a11.30269,11.30269,0,0,0-4.81676,1.41731,14.01154,14.01154,0,0,1-2.71949,1.05876,9.25664,9.25664,0,0,1-2.36557.05467,8.61,8.61,0,0,0-3.69291.32313,35.22378,35.22378,0,0,0-4.73938,2.34618,6.89426,6.89426,0,0,0-2.17262,2.517,6.59322,6.59322,0,0,1-1.21554,1.62328,9.451,9.451,0,0,1-2.30178,1.18185A8.65911,8.65911,0,0,0,8.552,12.67151,35.45988,35.45988,0,0,0,5.188,17.3a13.28912,13.28912,0,0,0-1.36452,4.78334A17.39244,17.39244,0,0,1,3.197,25.01917a35.05777,35.05777,0,0,0-1.88334,8.57129C1.2156,34.663,1.166,35.7557,1.166,36.83817a11.20526,11.20526,0,0,1-.54124,2.74264,9.77238,9.77238,0,0,0-.54731,4.24385,34.97715,34.97715,0,0,0,2.2837,7.535,5.92975,5.92975,0,0,0,2.32536,2.318,5.459,5.459,0,0,1,1.46418,1.23956c.55266.92308,1.15537,1.83213,1.79164,2.702a35.562,35.562,0,0,0,2.31624,2.84562A10.61707,10.61707,0,0,1,11.348,62.21938a9.82978,9.82978,0,0,0,1.84689,2.68218,35.49647,35.49647,0,0,0,3.8915,2.9285,4.46417,4.46417,0,0,0,2.61854.58116,3.24387,3.24387,0,0,1,1.40473.18384,10.58548,10.58548,0,0,1,2.06414,1.582,9.75435,9.75435,0,0,0,3.47422,2.319,13.95053,13.95053,0,0,0,3.18828.45706c.53342.03211,1.08522.06523,1.67245.14059a3.552,3.552,0,0,0,.45113.02806,8.21725,8.21725,0,0,0,2.5737-.57928,6.79509,6.79509,0,0,1,1.87394-.46285,12.03294,12.03294,0,0,1,2.78444.48252,10.0126,10.0126,0,0,0,4.352.43738,25.19888,25.19888,0,0,0,4.42724-1.46895c.44838-.18007.87188-.35031,1.28946-.50855a6.86422,6.86422,0,0,0,2.404-1.88073,6.35243,6.35243,0,0,1,1.36756-1.22176,35.39431,35.39431,0,0,0,4.70292-3.02382,6.23684,6.23684,0,0,1,1.798-.70975,6.54809,6.54809,0,0,0,2.87831-1.37348A35.52125,35.52125,0,0,0,66.209,58.37329a5.452,5.452,0,0,0,.751-2.83724,4.74972,4.74972,0,0,1,.29607-1.64584,35.17481,35.17481,0,0,0,2.224-4.85277,4.61992,4.61992,0,0,1,1.14163-1.42354,5.48088,5.48088,0,0,0,1.7889-2.6816,35.32224,35.32224,0,0,0,.59663-3.78129A5.5669,5.5669,0,0,0,72.2267,38.39261Zm-1.37783,2.53711a33.16515,33.16515,0,0,1-.55975,3.54813,3.8462,3.8462,0,0,1-1.18936,1.58958,6.28775,6.28775,0,0,0-1.6551,2.21861,32.98218,32.98218,0,0,1-2.08656,4.55279A6.08881,6.08881,0,0,0,64.79661,55.37a4.09019,4.09019,0,0,1-.34713,1.73349A33.35232,33.35232,0,0,1,60.88457,61.271a5.24233,5.24233,0,0,1-1.9613.83283,7.60313,7.60313,0,0,0-2.50239,1.06556,33.2116,33.2116,0,0,1-4.41366,2.838A7.91457,7.91457,0,0,0,50.086,67.653a5.34093,5.34093,0,0,1-1.59421,1.34022c-.43768.1659-.891.348-1.32952.52432a23.62205,23.62205,0,0,1-4.03874,1.35367,8.412,8.412,0,0,1-3.40494-.41366,13.77973,13.77973,0,0,0-3.31122-.54746,8.20006,8.20006,0,0,0-2.57124.578,5.54841,5.54841,0,0,1-2.052.45358c-.6597-.08447-1.24838-.11991-1.81768-.15419a11.87281,11.87281,0,0,1-2.71964-.37649,8.45041,8.45041,0,0,1-2.63213-1.85571A12.11937,12.11937,0,0,0,22.05212,66.641a4.8332,4.8332,0,0,0-2.181-.39979c-.05974,0-.11831.0003-.17574.00058a2.55562,2.55562,0,0,1-1.42744-.231,33.33189,33.33189,0,0,1-3.65285-2.74886,8.92108,8.92108,0,0,1-1.36264-2.08121,11.598,11.598,0,0,0-1.38491-2.171,33.37726,33.37726,0,0,1-2.17436-2.67118c-.59706-.81663-1.16289-1.66971-1.68142-2.53581a6.75149,6.75149,0,0,0-2.098-1.91386,4.67874,4.67874,0,0,1-1.5608-1.3881,32.8293,32.8293,0,0,1-2.142-7.06792,8.40881,8.40881,0,0,1,.50407-3.272,12.8505,12.8505,0,0,0,.62021-3.32264c0-1.017.04672-2.04317.13871-3.05029a32.90591,32.90591,0,0,1,1.76676-8.04133A19.13293,19.13293,0,0,0,5.966,22.42289a11.90223,11.90223,0,0,1,1.07423-3.99376,33.27265,33.27265,0,0,1,3.15746-4.34422,7.013,7.013,0,0,1,2.687-1.55516,11.16127,11.16127,0,0,0,2.83708-1.49759,8.147,8.147,0,0,0,1.70573-2.17884,5.47827,5.47827,0,0,1,1.43077-1.78686A33.06011,33.06011,0,0,1,23.30454,4.8652,7.19754,7.19754,0,0,1,26.066,4.697a10.86214,10.86214,0,0,0,2.96552-.10559,15.833,15.833,0,0,0,3.15718-1.209A9.556,9.556,0,0,1,36.0864,2.16958a33.34071,33.34071,0,0,1,6.23552.58694,7.90445,7.90445,0,0,1,2.37338,1.345,10.70361,10.70361,0,0,0,2.482,1.45767,32.99172,32.99172,0,0,1,5.10213,2.25737,6.61037,6.61037,0,0,0,3.01557.6691,3.49712,3.49712,0,0,1,2.16669.53459,33.40481,33.40481,0,0,1,3.27867,3.02381A9.18551,9.18551,0,0,1,61.7631,14.4105a10.40273,10.40273,0,0,0,1.1697,2.67176,8.16589,8.16589,0,0,0,2.02754,1.68128,6.16626,6.16626,0,0,1,1.6499,1.35368,28.69767,28.69767,0,0,1,2.07846,5.48759c.172.56178.3344,1.09245.49914,1.59884a2.61706,2.61706,0,0,1-.06407,1.50395,5.541,5.541,0,0,0-.15,2.33678,33.40362,33.40362,0,0,1,.50566,5.79365,6.22436,6.22436,0,0,0,.78423,2.47824A5.23451,5.23451,0,0,1,70.84887,40.92972Z"/><path class="cls-1" d="M44.93092,35.16946,36.40734,22.99293,27.88375,35.16946a9.8049,9.8049,0,0,0-1.39711,8.35981,9.90659,9.90659,0,0,0,9.9207,7.15415A9.90659,9.90659,0,0,0,46.328,43.52927,9.80463,9.80463,0,0,0,44.93092,35.16946Zm-.81394,7.726a7.85257,7.85257,0,0,1-7.70957,5.48777,7.85255,7.85255,0,0,1-7.70956-5.48777,7.51431,7.51431,0,0,1,1.07033-6.407l6.63923-9.48466,6.63923,9.48466A7.51459,7.51459,0,0,1,44.117,42.8955Z"/><path class="cls-1" d="M36.40734,22.99293l8.52359,12.17653a9.80462,9.80462,0,0,1,1.3971,8.35981,9.90658,9.90658,0,0,1-9.92069,7.15415,9.90661,9.90661,0,0,1-9.9207-7.15415,9.80493,9.80493,0,0,1,1.39711-8.35981l8.52359-12.17653m.00007,25.39034A7.85255,7.85255,0,0,0,44.117,42.89551a7.51454,7.51454,0,0,0-1.07033-6.407l-6.63923-9.48467-6.63923,9.48467a7.51436,7.51436,0,0,0-1.07034,6.407,7.85258,7.85258,0,0,0,7.70957,5.48777"/></g></g></svg>